Coordinates
version=1
nRows=11
nColumns=36
inDegrees=yes

Units are S.I. units (second, meters, Newtons, ...)
If the header above contains a line with 'inDegrees', this indicates whether rotational values are in degrees (yes) or radians (no).

endheader
time	pelvis_tilt	pelvis_list	pelvis_rotation	pelvis_tx	pelvis_ty	pelvis_tz	hip_flexion_r	hip_adduction_r	hip_rotation_r	knee_angle_r	knee_angle_r_beta	ankle_angle_r	subtalar_angle_r	mtp_angle_r	hip_flexion_l	hip_adduction_l	hip_rotation_l	knee_angle_l	knee_angle_l_beta	ankle_angle_l	subtalar_angle_l	mtp_angle_l	lumbar_extension	lumbar_bending	lumbar_rotation	arm_flex_r	arm_add_r	arm_rot_r	elbow_flex_r	pro_sup_r	arm_flex_l	arm_add_l	arm_rot_l	elbow_flex_l	pro_sup_l
      6.68000000	     -1.02976158	     -0.72399644	     -0.04882493	     -0.26681292	      1.06221062	     -0.62287496	      4.50811412	     -1.17073993	     -7.08710195	      4.93348215	      0.08610551	      2.82967980	     -0.59453995	     -7.49999987	      4.59110337	     -0.07696048	     -0.14907022	      6.45509892	      0.11266273	      4.28829449	     -2.92552495	     -7.49999987	     -3.05577846	      1.63771523	     -3.38351558	     -5.39235136	     -8.07868951	      3.06434498	     32.45997456	     98.73792625	     -7.55690881	     -6.51200442	      9.97444354	     33.41938857	     87.24311501
      6.69000000	     -1.09527617	     -0.75587639	     -0.05010519	     -0.26681933	      1.06202791	     -0.62296701	      4.55311594	     -1.13498105	     -7.05418922	      4.88949602	      0.08533780	      2.83661419	     -0.61861490	     -7.49999987	      4.69356671	     -0.10768373	     -0.20103357	      6.51743445	      0.11375069	      4.39651307	     -2.86215837	     -7.49999987	     -3.01869085	      1.67719956	     -3.44440655	     -5.33566646	     -8.22626527	      4.04209618	     32.60906231	     95.11152133	     -7.57811329	     -6.56681922	     10.59974739	     33.66329505	     83.75152445
      6.70000000	     -1.14710029	     -0.78146701	     -0.06106854	     -0.26692622	      1.06184672	     -0.62308511	      4.62548472	     -1.12104243	     -7.04610636	      4.91034307	      0.08570165	      2.77899507	     -0.64541189	     -7.49999987	      4.76077118	     -0.10958765	     -0.02561540	      6.53461649	      0.11405057	      4.28834726	     -3.18522452	     -7.49999987	     -3.05306574	      1.72373826	     -3.32558842	     -5.57073821	     -8.11091411	      2.79407242	     32.80128940	     99.25605019	     -7.59031042	     -6.48929100	     10.28949668	     33.46886055	     86.68144287
      6.71000000	     -1.13297022	     -0.78724702	     -0.09199520	     -0.26706858	      1.06175987	     -0.62319327	      4.64688024	     -1.14427871	     -7.15511946	      4.96625652	      0.08667753	      2.98636944	     -0.29075987	     -7.49999987	      4.81591306	     -0.12743240	     -0.21294721	      6.66637995	      0.11635028	      4.53367444	     -2.82167067	     -7.49999987	     -3.15668148	      1.73957051	     -3.33098909	     -5.57494136	     -8.09024414	      2.78384739	     32.99056647	     97.11787231	     -7.65430671	     -6.41633421	     10.11185378	     33.71548277	     85.08782361
      6.72000000	     -1.16739949	     -0.78258692	     -0.13248711	     -0.26727272	      1.06161548	     -0.62332204	      4.72363447	     -1.15619339	     -7.00258188	      5.01713011	      0.08756544	      2.91364315	     -0.50509080	     -7.49999987	      4.89033523	     -0.09990817	     -0.04547976	      6.73384632	      0.11752779	      4.46059778	     -3.18631230	     -7.49999987	     -3.21999287	      1.74850613	     -3.32811212	     -5.61600877	     -8.12200845	      2.87300291	     33.13706123	     96.99405526	     -7.78166248	     -6.43202372	     10.13340280	     33.95827289	     84.81905007
      6.73000000	     -1.23357249	     -0.76289127	     -0.20175730	     -0.26755867	      1.06145673	     -0.62344231	      4.86115647	     -1.17874468	     -6.81322937	      5.08473742	      0.08874541	      2.81914151	     -0.75334380	     -7.49999987	      5.00713942	     -0.04677694	      0.10286066	      6.80613271	      0.11878943	      4.27684861	     -3.62084090	     -7.49999987	     -3.25600104	      1.74424092	     -3.32140079	     -5.57124720	     -8.18103720	      3.08296577	     33.11487659	     96.78553055	     -7.86728882	     -6.41455733	     10.08918284	     34.02358836	     84.64610679
      6.74000000	     -1.28804156	     -0.77070354	     -0.28681241	     -0.26785590	      1.06132122	     -0.62347943	      5.01429888	     -1.18077175	     -6.76228745	      5.21376615	      0.09099739	      2.88041679	     -0.73512177	     -7.49999987	      5.10348697	     -0.04114591	      0.15332220	      6.86952743	      0.11989587	      4.23973286	     -3.80210838	     -7.49999987	     -3.32826500	      1.76239568	     -3.34991571	     -5.58203087	     -8.14925752	      2.77379524	     33.12589150	     99.43670951	     -8.09161929	     -6.28502095	      9.33612435	     34.08220847	     87.20821549
      6.75000000	     -1.25960325	     -0.77021930	     -0.36784878	     -0.26822467	      1.06133465	     -0.62349028	      5.05470399	     -1.18221595	     -6.59931054	      5.28987276	      0.09232570	      2.85303077	     -0.79570978	     -7.49999987	      5.13616195	     -0.04485796	      0.06492089	      6.97261441	      0.12169508	      4.32375080	     -3.79064752	     -7.49999987	     -3.51331556	      1.77263448	     -3.28428432	     -5.66104347	     -8.14361451	      2.66655238	     33.44589440	     98.84487755	     -8.20454740	     -6.22064447	      9.11404452	     34.41920101	     86.48248538
      6.76000000	     -1.27513530	     -0.72113627	     -0.45253085	     -0.26868197	      1.06133254	     -0.62343908	      5.19722942	     -1.22923236	     -6.46620394	      5.45329514	      0.09517796	      2.88596421	     -0.97681466	     -7.49999987	      5.25368410	     -0.00296021	     -0.13334732	      7.13011629	      0.12444401	      4.35369107	     -3.73878802	     -7.49999987	     -3.62183596	      1.72192035	     -3.21826521	     -5.65446899	     -8.17737266	      2.96342407	     33.50354061	     97.71183098	     -8.23405277	     -6.12827064	      8.95690435	     34.50885010	     85.31162285
      6.77000000	     -1.26758793	     -0.69704230	     -0.52323363	     -0.26912936	      1.06133942	     -0.62342440	      5.28467938	     -1.25851737	     -6.27441551	      5.56879575	      0.09719382	      2.84837709	     -0.99249041	     -7.49999987	      5.29718340	      0.01669424	     -0.08441233	      7.20898286	      0.12582049	      4.38304240	     -3.57929977	     -7.49999987	     -3.79689639	      1.71103477	     -3.17198423	     -5.79693393	     -8.20196326	      2.84589201	     34.01499153	     96.72353352	     -8.40855457	     -6.12501045	      8.72507716	     35.05171333	     84.26962510
      6.78000000	     -1.22004516	     -0.66723709	     -0.57350334	     -0.26968498	      1.06136672	     -0.62341725	      5.39283922	     -1.30138419	     -6.36998329	      5.78365576	      0.10094384	      2.89145282	     -1.11376904	     -7.49999987	      5.36248946	      0.05500579	     -0.15884709	      7.37579794	      0.12873196	      4.36491929	     -3.78758488	     -7.49999987	     -4.02458188	      1.68376251	     -3.12998560	     -5.79251836	     -8.18930131	      2.85188598	     34.16970372	     96.06241543	     -8.46808656	     -6.12525769	      8.60343545	     35.32762725	     83.58928288
